<svg width="1000" height="1000" viewBox="0 0 1000 1000" fill="none" xmlns="http://www.w3.org/2000/svg">
<rect width="1000" height="1000" rx="250" fill="#0B0D1C"/>
<path d="M500 79.9995C503.5 79.9995 521.31 96.0724 529.715 105.213C557.535 135.47 582.409 174.69 601.871 218.921C585.659 242.103 572.045 266.797 561.021 291.715C549.465 282.928 533.404 271.64 513.475 264.403C513.475 264.403 501 259.445 499.822 259.445C498.645 259.445 486.169 264.403 486.169 264.403C466.475 271.554 450.559 282.662 439.035 291.403C428.008 266.529 414.4 241.885 398.203 218.75C417.654 174.589 442.502 135.431 470.286 105.213C478.691 96.0723 496.5 79.9997 500 79.9995Z" fill="url(#paint0_linear_23_4)"/>
<path d="M814.368 126.376C818.38 125.939 832.66 121.938 829.825 130.006C806.499 196.385 809.755 264.39 809.776 334.159C809.786 427.473 816.825 523.304 807.923 616.358C796.822 732.41 732.197 838.471 629.613 893.177C633.1 889.976 636.482 886.724 639.753 883.44C675.555 847.5 703.409 802.829 719.424 764.847L719.51 764.642C755.053 679.019 748.556 586.247 718.13 503.914C691.97 433.124 647.457 368 593.131 318.387C631.862 223.812 707.124 138.074 814.368 126.376Z" fill="url(#paint1_linear_23_4)"/>
<path d="M170.37 130.006C167.535 121.938 181.814 125.939 185.827 126.376C292.932 138.059 368.137 223.591 406.913 318.022C352.405 367.68 307.738 432.95 281.514 503.914C251.089 586.247 244.591 679.019 280.134 764.642L280.22 764.847C296.235 802.829 324.089 847.499 359.891 883.44C362.922 886.483 366.049 889.497 369.266 892.47C340.187 876.788 313.445 856.635 290.261 833.169C215.629 758.248 190.349 659.259 190.394 556.768L190.418 334.159C190.439 264.39 193.695 196.385 170.37 130.006Z" fill="url(#paint2_linear_23_4)"/>
<path fill-rule="evenodd" clip-rule="evenodd" d="M499.822 302C505.001 302.001 529.776 318.085 541.59 327.232C662.723 421.026 744.183 600.871 682.566 749.306C654.15 816.699 582.16 910.274 499.822 911.452C417.484 910.275 345.495 816.7 317.078 749.306C255.461 600.871 336.92 421.026 458.053 327.232C469.868 318.085 494.644 302 499.822 302ZM411.677 489.322C401.914 479.559 386.085 479.559 376.322 489.322C366.559 499.085 366.559 514.915 376.322 524.678L458.644 607L455.521 610.123C455.453 610.191 455.386 610.259 455.318 610.327C455.25 610.395 455.182 610.462 455.115 610.529C455.047 610.597 454.979 610.665 454.912 610.732C454.844 610.8 454.778 610.867 454.711 610.935C454.643 611.002 454.576 611.069 454.508 611.136C454.442 611.203 454.375 611.27 454.308 611.337C454.241 611.404 454.174 611.47 454.107 611.537C454.041 611.604 453.974 611.67 453.908 611.736C453.841 611.803 453.775 611.87 453.709 611.937C453.642 612.003 453.576 612.069 453.509 612.135L451.548 614.097C451.483 614.161 451.419 614.227 451.354 614.291C451.29 614.355 451.225 614.419 451.161 614.483L449.443 616.201C449.38 616.264 449.317 616.328 449.255 616.391C449.192 616.453 449.129 616.516 449.066 616.578C449.003 616.641 448.94 616.704 448.878 616.767C448.815 616.829 448.753 616.892 448.691 616.954C448.629 617.016 448.566 617.078 448.504 617.141L443.25 622.395C442.316 623.328 443.48 622.165 442.549 623.097C442.238 623.408 442.16 623.484 441.851 623.793L435.444 630.2C435.389 630.255 435.335 630.31 435.28 630.365C435.225 630.42 435.17 630.475 435.115 630.529C434.679 630.965 435.223 630.421 434.788 630.856C434.7 630.944 434.548 631.097 434.461 631.185C433.302 632.343 434.965 630.679 433.807 631.837L428.016 637.628C427.733 637.911 427.981 637.664 427.698 637.947C427.645 638 427.591 638.053 427.538 638.106L415.755 649.89C414.865 650.78 416.313 649.332 415.423 650.223C415.367 650.278 415.311 650.333 415.256 650.389L412.044 653.601C411.987 653.658 411.93 653.715 411.873 653.772C411.816 653.83 411.758 653.887 411.701 653.944C411.501 654.144 410.522 655.123 410.315 655.329C409.428 656.216 408.399 657.246 407.484 658.161C405.864 659.781 407.662 657.983 406.034 659.61C405.854 659.79 405.849 659.796 405.669 659.977C405.362 660.283 405.607 660.037 405.3 660.344L391.473 674.171C391.4 674.244 391.328 674.317 391.255 674.391C390.734 674.911 391.335 674.31 390.813 674.831C390.74 674.905 390.666 674.978 390.592 675.052C390.519 675.126 390.445 675.2 390.371 675.274C390.297 675.348 390.222 675.422 390.148 675.496L384.372 681.272C384.16 681.484 383.624 682.022 383.408 682.237C383.327 682.318 383.246 682.398 383.165 682.479L380.444 685.2C380.36 685.284 380.277 685.368 380.193 685.452C380.109 685.536 380.024 685.62 379.94 685.704C379.892 685.752 379.481 686.163 379.432 686.212C378.116 687.529 379.73 685.915 378.409 687.236C378.323 687.322 378.236 687.408 378.15 687.494L376.322 689.322C366.559 699.085 366.559 714.915 376.322 724.678C386.085 734.441 401.914 734.441 411.677 724.678L413.506 722.85C413.592 722.763 413.677 722.677 413.763 722.591C415.62 720.734 413.959 722.396 415.799 720.556L417.295 719.061C417.377 718.978 417.459 718.896 417.541 718.813C417.623 718.732 417.705 718.65 417.787 718.568C418.532 717.823 418.021 718.333 418.762 717.592C418.769 717.585 419.247 717.108 419.247 717.108L425.28 711.075C426.213 710.142 424.793 711.561 425.725 710.629C425.799 710.555 425.874 710.481 425.948 710.407L441.389 694.966C442.043 694.312 442.193 694.161 442.839 693.516C443.215 693.14 445.323 691.032 445.671 690.685L452.433 683.922C451.859 684.496 453.335 683.019 452.761 683.593L453.09 683.265C453.144 683.21 453.199 683.156 453.254 683.102L453.744 682.611C453.798 682.557 453.853 682.502 453.907 682.447C453.961 682.393 454.016 682.338 454.07 682.284C454.124 682.23 454.179 682.176 454.233 682.122L464.01 672.345C464.294 672.061 464.046 672.309 464.33 672.024C464.383 671.971 464.437 671.918 464.49 671.865L483.859 652.496C483.921 652.434 483.983 652.371 484.046 652.309C484.108 652.246 484.171 652.184 484.233 652.122C484.296 652.06 484.359 651.996 484.422 651.934C484.484 651.871 484.546 651.808 484.609 651.745C484.672 651.682 484.736 651.62 484.799 651.557L485.939 650.416C487.306 649.049 487.656 648.698 489.063 647.291C489.13 647.225 489.197 647.158 489.263 647.092L489.463 646.893C489.529 646.826 489.596 646.758 489.663 646.691C489.73 646.625 489.797 646.558 489.864 646.491C489.931 646.424 489.998 646.356 490.065 646.289C490.132 646.222 490.2 646.155 490.267 646.088C490.335 646.02 490.403 645.952 490.47 645.885C490.538 645.817 490.605 645.749 490.673 645.682C490.74 645.614 490.809 645.546 490.877 645.479L495.062 641.293C495.134 641.221 495.205 641.149 495.277 641.077L495.493 640.861C495.565 640.789 495.637 640.718 495.71 640.646C495.782 640.573 495.854 640.5 495.926 640.428C495.999 640.355 496.072 640.283 496.144 640.21C496.217 640.137 496.29 640.065 496.363 639.992L497.021 639.334C497.095 639.26 497.168 639.186 497.242 639.112C497.315 639.039 497.39 638.965 497.464 638.892C497.537 638.818 497.611 638.743 497.685 638.669L497.908 638.446C497.982 638.372 498.057 638.298 498.132 638.224C498.206 638.149 498.28 638.074 498.355 637.999C498.43 637.924 498.505 637.849 498.58 637.774C498.655 637.7 498.73 637.625 498.805 637.55L501.559 634.796C501.637 634.718 501.715 634.64 501.793 634.562C501.871 634.483 501.95 634.405 502.028 634.327C502.106 634.249 502.184 634.17 502.262 634.092C502.341 634.013 502.42 633.935 502.499 633.856L502.735 633.62C502.814 633.541 502.893 633.461 502.972 633.382C503.051 633.303 503.131 633.224 503.211 633.145L504.897 631.458C504.978 631.377 505.059 631.295 505.14 631.214C505.222 631.133 505.304 631.051 505.385 630.97L505.877 630.479C505.959 630.396 506.04 630.314 506.123 630.231C506.205 630.149 506.288 630.067 506.371 629.984L508.632 627.724C508.716 627.639 508.801 627.553 508.886 627.468L509.142 627.212C509.228 627.127 509.314 627.042 509.399 626.956L509.915 626.44C510.001 626.354 510.087 626.267 510.174 626.181L510.433 625.921C510.52 625.834 510.607 625.748 510.694 625.661L510.956 625.399C520.64 615.715 521.587 599.232 510.97 588.615L411.677 489.322ZM494 682C480.193 682 469 693.193 469 707C469 720.807 480.193 732 494 732H605.5C619.307 732 630.5 720.807 630.5 707C630.5 693.193 619.307 682 605.5 682H494Z" fill="url(#paint3_linear_23_4)"/>
<defs>
<linearGradient id="paint0_linear_23_4" x1="500.037" y1="79.9995" x2="500.037" y2="291.715" gradientUnits="userSpaceOnUse">
<stop stop-color="#D8B4FE"/>
<stop offset="1" stop-color="#9333EA"/>
</linearGradient>
<linearGradient id="paint1_linear_23_4" x1="500.096" y1="125" x2="500.096" y2="893.177" gradientUnits="userSpaceOnUse">
<stop stop-color="#D8B4FE"/>
<stop offset="1" stop-color="#9333EA"/>
</linearGradient>
<linearGradient id="paint2_linear_23_4" x1="500.096" y1="125" x2="500.096" y2="893.177" gradientUnits="userSpaceOnUse">
<stop stop-color="#D8B4FE"/>
<stop offset="1" stop-color="#9333EA"/>
</linearGradient>
<linearGradient id="paint3_linear_23_4" x1="499.821" y1="302" x2="499.821" y2="911.452" gradientUnits="userSpaceOnUse">
<stop stop-color="#D8B4FE"/>
<stop offset="1" stop-color="#9333EA"/>
</linearGradient>
</defs>
</svg>
